<svg xmlns="http://www.w3.org/2000/svg" width="2582" height="1586" viewBox="-5 -5 2582 1586"><defs>
<filter id="text-shadow" x="-50%" y="-50%" width="200%" height="200%">
  <feGaussianBlur in="SourceAlpha" stdDeviation="1.5" result="blur"/>
  <feFlood flood-color="#3C3E41" result="color"/>
  <feComposite in="color" in2="blur" operator="in" result="shadow"/>
  <feMerge>
    <feMergeNode in="shadow"/>
    <feMergeNode in="SourceGraphic"/>
  </feMerge>
</filter>
</defs><g transform="translate(175.80628967285156, 108.2125244140625) scale(2)"><g class="export-edge" data-id="Clab-Link0"><path d="M 280 340 L 420 340" fill="none" stroke="#00df2b" stroke-width="2.5" opacity="0.5"/><g class="edge-label"><circle cx="298" cy="340" r="6" fill="#bec8d2" stroke="rgba(0, 0, 0, 0.25)" stroke-width="0.7"/><text x="298" y="340" font-size="9" font-family="Helvetica, Arial, sans-serif" dominant-baseline="middle" alignment-baseline="middle" fill="#FFFFFF" text-anchor="middle" stroke="rgba(0, 0, 0, 0.95)" stroke-width="0.6" paint-order="stroke" stroke-linejoin="round">1</text></g><g class="edge-label"><circle cx="402" cy="340" r="6" fill="#bec8d2" stroke="rgba(0, 0, 0, 0.25)" stroke-width="0.7"/><text x="402" y="340" font-size="9" font-family="Helvetica, Arial, sans-serif" dominant-baseline="middle" alignment-baseline="middle" fill="#FFFFFF" text-anchor="middle" stroke="rgba(0, 0, 0, 0.95)" stroke-width="0.6" paint-order="stroke" stroke-linejoin="round">1</text></g></g><g class="export-edge" data-id="Clab-Link1"><path d="M 460 340 L 600 340" fill="none" stroke="#00df2b" stroke-width="2.5" opacity="0.5"/><g class="edge-label"><circle cx="478" cy="340" r="6" fill="#bec8d2" stroke="rgba(0, 0, 0, 0.25)" stroke-width="0.7"/><text x="478" y="340" font-size="9" font-family="Helvetica, Arial, sans-serif" dominant-baseline="middle" alignment-baseline="middle" fill="#FFFFFF" text-anchor="middle" stroke="rgba(0, 0, 0, 0.95)" stroke-width="0.6" paint-order="stroke" stroke-linejoin="round">2</text></g><g class="edge-label"><circle cx="582" cy="340" r="6" fill="#bec8d2" stroke="rgba(0, 0, 0, 0.25)" stroke-width="0.7"/><text x="582" y="340" font-size="9" font-family="Helvetica, Arial, sans-serif" dominant-baseline="middle" alignment-baseline="middle" fill="#FFFFFF" text-anchor="middle" stroke="rgba(0, 0, 0, 0.95)" stroke-width="0.6" paint-order="stroke" stroke-linejoin="round">1</text></g></g><g class="export-edge" data-id="Clab-Link2"><path d="M 80 340 L 240 340" fill="none" stroke="#00df2b" stroke-width="2.5" opacity="0.5"/><g class="edge-label"><circle cx="98" cy="340" r="6" fill="#bec8d2" stroke="rgba(0, 0, 0, 0.25)" stroke-width="0.7"/><text x="98" y="340" font-size="9" font-family="Helvetica, Arial, sans-serif" dominant-baseline="middle" alignment-baseline="middle" fill="#FFFFFF" text-anchor="middle" stroke="rgba(0, 0, 0, 0.95)" stroke-width="0.6" paint-order="stroke" stroke-linejoin="round">1</text></g><g class="edge-label"><circle cx="222" cy="340" r="6" fill="#bec8d2" stroke="rgba(0, 0, 0, 0.25)" stroke-width="0.7"/><text x="222" y="340" font-size="9" font-family="Helvetica, Arial, sans-serif" dominant-baseline="middle" alignment-baseline="middle" fill="#FFFFFF" text-anchor="middle" stroke="rgba(0, 0, 0, 0.95)" stroke-width="0.6" paint-order="stroke" stroke-linejoin="round">2</text></g></g><g class="export-edge" data-id="Clab-Link3"><path d="M 780 340 L 640 340" fill="none" stroke="#00df2b" stroke-width="2.5" opacity="0.5"/><g class="edge-label"><circle cx="762" cy="340" r="6" fill="#bec8d2" stroke="rgba(0, 0, 0, 0.25)" stroke-width="0.7"/><text x="762" y="340" font-size="9" font-family="Helvetica, Arial, sans-serif" dominant-baseline="middle" alignment-baseline="middle" fill="#FFFFFF" text-anchor="middle" stroke="rgba(0, 0, 0, 0.95)" stroke-width="0.6" paint-order="stroke" stroke-linejoin="round">1</text></g><g class="edge-label"><circle cx="658" cy="340" r="6" fill="#bec8d2" stroke="rgba(0, 0, 0, 0.25)" stroke-width="0.7"/><text x="658" y="340" font-size="9" font-family="Helvetica, Arial, sans-serif" dominant-baseline="middle" alignment-baseline="middle" fill="#FFFFFF" text-anchor="middle" stroke="rgba(0, 0, 0, 0.95)" stroke-width="0.6" paint-order="stroke" stroke-linejoin="round">2</text></g></g><g class="export-node topology-node" data-id="RT-01"><g transform="rotate(0 260 340)"><rect x="240" y="320" width="40" height="40" rx="4" ry="4" fill="#005aff"/><g transform="translate(240, 320)" style="color: #005aff"><g transform="scale(0.3333)">
                        
                        <rect height="120" width="120" fill="currentColor"/>
                        <g>
                            <g>
                                <path d="M71.7,19.7V48h28" fill="none" stroke="#FFFFFF" stroke-width="4" stroke-linecap="round" stroke-linejoin="round"/>
                                <path d="M91.2,38.5l7.5,7.6c1.3,1.3,1.3,3.1,0,4.3L91.1,58" fill="none" stroke="#FFFFFF" stroke-width="4" stroke-linecap="round" stroke-linejoin="round"/>
                            </g>
                            <g>
                                <path d="M20,47.8h28.4v-28" fill="none" stroke="#FFFFFF" stroke-width="4" stroke-linecap="round" stroke-linejoin="round"/>
                                <path d="M38.8,28.3l7.6-7.5c1.3-1.3,3.1-1.3,4.3,0l7.7,7.6" fill="none" stroke="#FFFFFF" stroke-width="4" stroke-linecap="round" stroke-linejoin="round"/>
                            </g>
                            <g>
                                <path d="M48,100.3V72H20" fill="none" stroke="#FFFFFF" stroke-width="4" stroke-linecap="round" stroke-linejoin="round"/>
                                <path d="M28.5,81.5L21,73.9c-1.3-1.3-1.3-3.1,0-4.3l7.6-7.7" fill="none" stroke="#FFFFFF" stroke-width="4" stroke-linecap="round" stroke-linejoin="round"/>
                            </g>
                            <g>
                                <path d="M100,71.9H71.6v28" fill="none" stroke="#FFFFFF" stroke-width="4" stroke-linecap="round" stroke-linejoin="round"/>
                                <path d="M81.2,91.4l-7.6,7.5c-1.3,1.3-3.1,1.3-4.3,0l-7.7-7.6" fill="none" stroke="#FFFFFF" stroke-width="4" stroke-linecap="round" stroke-linejoin="round"/>
                            </g>
                        </g>
                    </g></g></g><rect x="239.5" y="362" width="41" height="15" fill="rgba(0, 0, 0, 0.85)" rx="3" ry="3"/><text x="260" y="371.8" font-size="11" font-weight="500" font-family="system-ui, -apple-system, sans-serif" fill="#FFFFFF" text-anchor="middle" stroke="rgba(0, 0, 0, 0.95)" stroke-width="0.8" paint-order="stroke" stroke-linejoin="round" filter="url(#text-shadow)">RT-01</text></g><g class="export-node topology-node" data-id="RT-02"><g transform="rotate(0 440 340)"><rect x="420" y="320" width="40" height="40" rx="4" ry="4" fill="#005aff"/><g transform="translate(420, 320)" style="color: #005aff"><g transform="scale(0.3333)">
                        
                        <rect height="120" width="120" fill="currentColor"/>
                        <g>
                            <g>
                                <path d="M71.7,19.7V48h28" fill="none" stroke="#FFFFFF" stroke-width="4" stroke-linecap="round" stroke-linejoin="round"/>
                                <path d="M91.2,38.5l7.5,7.6c1.3,1.3,1.3,3.1,0,4.3L91.1,58" fill="none" stroke="#FFFFFF" stroke-width="4" stroke-linecap="round" stroke-linejoin="round"/>
                            </g>
                            <g>
                                <path d="M20,47.8h28.4v-28" fill="none" stroke="#FFFFFF" stroke-width="4" stroke-linecap="round" stroke-linejoin="round"/>
                                <path d="M38.8,28.3l7.6-7.5c1.3-1.3,3.1-1.3,4.3,0l7.7,7.6" fill="none" stroke="#FFFFFF" stroke-width="4" stroke-linecap="round" stroke-linejoin="round"/>
                            </g>
                            <g>
                                <path d="M48,100.3V72H20" fill="none" stroke="#FFFFFF" stroke-width="4" stroke-linecap="round" stroke-linejoin="round"/>
                                <path d="M28.5,81.5L21,73.9c-1.3-1.3-1.3-3.1,0-4.3l7.6-7.7" fill="none" stroke="#FFFFFF" stroke-width="4" stroke-linecap="round" stroke-linejoin="round"/>
                            </g>
                            <g>
                                <path d="M100,71.9H71.6v28" fill="none" stroke="#FFFFFF" stroke-width="4" stroke-linecap="round" stroke-linejoin="round"/>
                                <path d="M81.2,91.4l-7.6,7.5c-1.3,1.3-3.1,1.3-4.3,0l-7.7-7.6" fill="none" stroke="#FFFFFF" stroke-width="4" stroke-linecap="round" stroke-linejoin="round"/>
                            </g>
                        </g>
                    </g></g></g><rect x="419.5" y="362" width="41" height="15" fill="rgba(0, 0, 0, 0.85)" rx="3" ry="3"/><text x="440" y="371.8" font-size="11" font-weight="500" font-family="system-ui, -apple-system, sans-serif" fill="#FFFFFF" text-anchor="middle" stroke="rgba(0, 0, 0, 0.95)" stroke-width="0.8" paint-order="stroke" stroke-linejoin="round" filter="url(#text-shadow)">RT-02</text></g><g class="export-node topology-node" data-id="RT-03"><g transform="rotate(0 620 340)"><rect x="600" y="320" width="40" height="40" rx="4" ry="4" fill="#005aff"/><g transform="translate(600, 320)" style="color: #005aff"><g transform="scale(0.3333)">
                        
                        <rect height="120" width="120" fill="currentColor"/>
                        <g>
                            <g>
                                <path d="M71.7,19.7V48h28" fill="none" stroke="#FFFFFF" stroke-width="4" stroke-linecap="round" stroke-linejoin="round"/>
                                <path d="M91.2,38.5l7.5,7.6c1.3,1.3,1.3,3.1,0,4.3L91.1,58" fill="none" stroke="#FFFFFF" stroke-width="4" stroke-linecap="round" stroke-linejoin="round"/>
                            </g>
                            <g>
                                <path d="M20,47.8h28.4v-28" fill="none" stroke="#FFFFFF" stroke-width="4" stroke-linecap="round" stroke-linejoin="round"/>
                                <path d="M38.8,28.3l7.6-7.5c1.3-1.3,3.1-1.3,4.3,0l7.7,7.6" fill="none" stroke="#FFFFFF" stroke-width="4" stroke-linecap="round" stroke-linejoin="round"/>
                            </g>
                            <g>
                                <path d="M48,100.3V72H20" fill="none" stroke="#FFFFFF" stroke-width="4" stroke-linecap="round" stroke-linejoin="round"/>
                                <path d="M28.5,81.5L21,73.9c-1.3-1.3-1.3-3.1,0-4.3l7.6-7.7" fill="none" stroke="#FFFFFF" stroke-width="4" stroke-linecap="round" stroke-linejoin="round"/>
                            </g>
                            <g>
                                <path d="M100,71.9H71.6v28" fill="none" stroke="#FFFFFF" stroke-width="4" stroke-linecap="round" stroke-linejoin="round"/>
                                <path d="M81.2,91.4l-7.6,7.5c-1.3,1.3-3.1,1.3-4.3,0l-7.7-7.6" fill="none" stroke="#FFFFFF" stroke-width="4" stroke-linecap="round" stroke-linejoin="round"/>
                            </g>
                        </g>
                    </g></g></g><rect x="599.5" y="362" width="41" height="15" fill="rgba(0, 0, 0, 0.85)" rx="3" ry="3"/><text x="620" y="371.8" font-size="11" font-weight="500" font-family="system-ui, -apple-system, sans-serif" fill="#FFFFFF" text-anchor="middle" stroke="rgba(0, 0, 0, 0.95)" stroke-width="0.8" paint-order="stroke" stroke-linejoin="round" filter="url(#text-shadow)">RT-03</text></g><g class="export-node topology-node" data-id="RT-CE-01"><g transform="rotate(0 60 340)"><rect x="40" y="320" width="40" height="40" rx="4" ry="4" fill="#005aff"/><g transform="translate(40, 320)" style="color: #005aff"><g transform="scale(0.3333)">
                        
                        <rect height="120" width="120" fill="currentColor"/>
                        <g>
                            <g>
                                <path d="M71.7,19.7V48h28" fill="none" stroke="#FFFFFF" stroke-width="4" stroke-linecap="round" stroke-linejoin="round"/>
                                <path d="M91.2,38.5l7.5,7.6c1.3,1.3,1.3,3.1,0,4.3L91.1,58" fill="none" stroke="#FFFFFF" stroke-width="4" stroke-linecap="round" stroke-linejoin="round"/>
                            </g>
                            <g>
                                <path d="M20,47.8h28.4v-28" fill="none" stroke="#FFFFFF" stroke-width="4" stroke-linecap="round" stroke-linejoin="round"/>
                                <path d="M38.8,28.3l7.6-7.5c1.3-1.3,3.1-1.3,4.3,0l7.7,7.6" fill="none" stroke="#FFFFFF" stroke-width="4" stroke-linecap="round" stroke-linejoin="round"/>
                            </g>
                            <g>
                                <path d="M48,100.3V72H20" fill="none" stroke="#FFFFFF" stroke-width="4" stroke-linecap="round" stroke-linejoin="round"/>
                                <path d="M28.5,81.5L21,73.9c-1.3-1.3-1.3-3.1,0-4.3l7.6-7.7" fill="none" stroke="#FFFFFF" stroke-width="4" stroke-linecap="round" stroke-linejoin="round"/>
                            </g>
                            <g>
                                <path d="M100,71.9H71.6v28" fill="none" stroke="#FFFFFF" stroke-width="4" stroke-linecap="round" stroke-linejoin="round"/>
                                <path d="M81.2,91.4l-7.6,7.5c-1.3,1.3-3.1,1.3-4.3,0l-7.7-7.6" fill="none" stroke="#FFFFFF" stroke-width="4" stroke-linecap="round" stroke-linejoin="round"/>
                            </g>
                        </g>
                    </g></g></g><rect x="29.6" y="362" width="60.8" height="15" fill="rgba(0, 0, 0, 0.85)" rx="3" ry="3"/><text x="60" y="371.8" font-size="11" font-weight="500" font-family="system-ui, -apple-system, sans-serif" fill="#FFFFFF" text-anchor="middle" stroke="rgba(0, 0, 0, 0.95)" stroke-width="0.8" paint-order="stroke" stroke-linejoin="round" filter="url(#text-shadow)">RT-CE-01</text></g><g class="export-node topology-node" data-id="RT-CE-02"><g transform="rotate(0 800 340)"><rect x="780" y="320" width="40" height="40" rx="4" ry="4" fill="#005aff"/><g transform="translate(780, 320)" style="color: #005aff"><g transform="scale(0.3333)">
                        
                        <rect height="120" width="120" fill="currentColor"/>
                        <g>
                            <g>
                                <path d="M71.7,19.7V48h28" fill="none" stroke="#FFFFFF" stroke-width="4" stroke-linecap="round" stroke-linejoin="round"/>
                                <path d="M91.2,38.5l7.5,7.6c1.3,1.3,1.3,3.1,0,4.3L91.1,58" fill="none" stroke="#FFFFFF" stroke-width="4" stroke-linecap="round" stroke-linejoin="round"/>
                            </g>
                            <g>
                                <path d="M20,47.8h28.4v-28" fill="none" stroke="#FFFFFF" stroke-width="4" stroke-linecap="round" stroke-linejoin="round"/>
                                <path d="M38.8,28.3l7.6-7.5c1.3-1.3,3.1-1.3,4.3,0l7.7,7.6" fill="none" stroke="#FFFFFF" stroke-width="4" stroke-linecap="round" stroke-linejoin="round"/>
                            </g>
                            <g>
                                <path d="M48,100.3V72H20" fill="none" stroke="#FFFFFF" stroke-width="4" stroke-linecap="round" stroke-linejoin="round"/>
                                <path d="M28.5,81.5L21,73.9c-1.3-1.3-1.3-3.1,0-4.3l7.6-7.7" fill="none" stroke="#FFFFFF" stroke-width="4" stroke-linecap="round" stroke-linejoin="round"/>
                            </g>
                            <g>
                                <path d="M100,71.9H71.6v28" fill="none" stroke="#FFFFFF" stroke-width="4" stroke-linecap="round" stroke-linejoin="round"/>
                                <path d="M81.2,91.4l-7.6,7.5c-1.3,1.3-3.1,1.3-4.3,0l-7.7-7.6" fill="none" stroke="#FFFFFF" stroke-width="4" stroke-linecap="round" stroke-linejoin="round"/>
                            </g>
                        </g>
                    </g></g></g><rect x="769.6" y="362" width="60.8" height="15" fill="rgba(0, 0, 0, 0.85)" rx="3" ry="3"/><text x="800" y="371.8" font-size="11" font-weight="500" font-family="system-ui, -apple-system, sans-serif" fill="#FFFFFF" text-anchor="middle" stroke="rgba(0, 0, 0, 0.95)" stroke-width="0.8" paint-order="stroke" stroke-linejoin="round" filter="url(#text-shadow)">RT-CE-02</text></g></g></svg>