<svg xmlns="http://www.w3.org/2000/svg" width="2885" height="1586" viewBox="-5 -5 2885 1586"><defs>
<filter id="text-shadow" x="-50%" y="-50%" width="200%" height="200%">
  <feGaussianBlur in="SourceAlpha" stdDeviation="1.5" result="blur"/>
  <feFlood flood-color="#3C3E41" result="color"/>
  <feComposite in="color" in2="blur" operator="in" result="shadow"/>
  <feMerge>
    <feMergeNode in="shadow"/>
    <feMergeNode in="SourceGraphic"/>
  </feMerge>
</filter>
</defs><g transform="translate(364.8671902160646, 437.6440491788403) scale(3.260233079328845)"><g class="export-edge" data-id="Clab-Link0"><path d="M 120 -40 L 220 -40" fill="none" stroke="#00df2b" stroke-width="2.5" opacity="0.5"/><g class="edge-label"><circle cx="138" cy="-40" r="6" fill="#bec8d2" stroke="rgba(0, 0, 0, 0.25)" stroke-width="0.7"/><text x="138" y="-40" font-size="9" font-family="Helvetica, Arial, sans-serif" dominant-baseline="middle" alignment-baseline="middle" fill="#FFFFFF" text-anchor="middle" stroke="rgba(0, 0, 0, 0.95)" stroke-width="0.6" paint-order="stroke" stroke-linejoin="round">1</text></g><g class="edge-label"><circle cx="202" cy="-40" r="6" fill="#bec8d2" stroke="rgba(0, 0, 0, 0.25)" stroke-width="0.7"/><text x="202" y="-40" font-size="9" font-family="Helvetica, Arial, sans-serif" dominant-baseline="middle" alignment-baseline="middle" fill="#FFFFFF" text-anchor="middle" stroke="rgba(0, 0, 0, 0.95)" stroke-width="0.6" paint-order="stroke" stroke-linejoin="round">1</text></g></g><g class="export-edge" data-id="Clab-Link1"><path d="M 260 -40 L 360 -40" fill="none" stroke="#00df2b" stroke-width="2.5" opacity="0.5"/><g class="edge-label"><circle cx="278" cy="-40" r="6" fill="#bec8d2" stroke="rgba(0, 0, 0, 0.25)" stroke-width="0.7"/><text x="278" y="-40" font-size="9" font-family="Helvetica, Arial, sans-serif" dominant-baseline="middle" alignment-baseline="middle" fill="#FFFFFF" text-anchor="middle" stroke="rgba(0, 0, 0, 0.95)" stroke-width="0.6" paint-order="stroke" stroke-linejoin="round">2</text></g><g class="edge-label"><circle cx="342" cy="-40" r="6" fill="#bec8d2" stroke="rgba(0, 0, 0, 0.25)" stroke-width="0.7"/><text x="342" y="-40" font-size="9" font-family="Helvetica, Arial, sans-serif" dominant-baseline="middle" alignment-baseline="middle" fill="#FFFFFF" text-anchor="middle" stroke="rgba(0, 0, 0, 0.95)" stroke-width="0.6" paint-order="stroke" stroke-linejoin="round">1</text></g></g><g class="export-edge" data-id="Clab-Link2"><path d="M 120 100 L 220 100" fill="none" stroke="#00df2b" stroke-width="2.5" opacity="0.5"/><g class="edge-label"><circle cx="138" cy="100" r="6" fill="#bec8d2" stroke="rgba(0, 0, 0, 0.25)" stroke-width="0.7"/><text x="138" y="100" font-size="9" font-family="Helvetica, Arial, sans-serif" dominant-baseline="middle" alignment-baseline="middle" fill="#FFFFFF" text-anchor="middle" stroke="rgba(0, 0, 0, 0.95)" stroke-width="0.6" paint-order="stroke" stroke-linejoin="round">2</text></g><g class="edge-label"><circle cx="202" cy="100" r="6" fill="#bec8d2" stroke="rgba(0, 0, 0, 0.25)" stroke-width="0.7"/><text x="202" y="100" font-size="9" font-family="Helvetica, Arial, sans-serif" dominant-baseline="middle" alignment-baseline="middle" fill="#FFFFFF" text-anchor="middle" stroke="rgba(0, 0, 0, 0.95)" stroke-width="0.6" paint-order="stroke" stroke-linejoin="round">2</text></g></g><g class="export-edge" data-id="Clab-Link3"><path d="M 260 100 L 360 100" fill="none" stroke="#00df2b" stroke-width="2.5" opacity="0.5"/><g class="edge-label"><circle cx="278" cy="100" r="6" fill="#bec8d2" stroke="rgba(0, 0, 0, 0.25)" stroke-width="0.7"/><text x="278" y="100" font-size="9" font-family="Helvetica, Arial, sans-serif" dominant-baseline="middle" alignment-baseline="middle" fill="#FFFFFF" text-anchor="middle" stroke="rgba(0, 0, 0, 0.95)" stroke-width="0.6" paint-order="stroke" stroke-linejoin="round">3</text></g><g class="edge-label"><circle cx="342" cy="100" r="6" fill="#bec8d2" stroke="rgba(0, 0, 0, 0.25)" stroke-width="0.7"/><text x="342" y="100" font-size="9" font-family="Helvetica, Arial, sans-serif" dominant-baseline="middle" alignment-baseline="middle" fill="#FFFFFF" text-anchor="middle" stroke="rgba(0, 0, 0, 0.95)" stroke-width="0.6" paint-order="stroke" stroke-linejoin="round">2</text></g></g><g class="export-edge" data-id="Clab-Link4"><path d="M 100 200 L 100 120" fill="none" stroke="#00df2b" stroke-width="2.5" opacity="0.5"/><g class="edge-label"><circle cx="100" cy="182" r="6" fill="#bec8d2" stroke="rgba(0, 0, 0, 0.25)" stroke-width="0.7"/><text x="100" y="182" font-size="9" font-family="Helvetica, Arial, sans-serif" dominant-baseline="middle" alignment-baseline="middle" fill="#FFFFFF" text-anchor="middle" stroke="rgba(0, 0, 0, 0.95)" stroke-width="0.6" paint-order="stroke" stroke-linejoin="round">1</text></g><g class="edge-label"><circle cx="100" cy="138" r="6" fill="#bec8d2" stroke="rgba(0, 0, 0, 0.25)" stroke-width="0.7"/><text x="100" y="138" font-size="9" font-family="Helvetica, Arial, sans-serif" dominant-baseline="middle" alignment-baseline="middle" fill="#FFFFFF" text-anchor="middle" stroke="rgba(0, 0, 0, 0.95)" stroke-width="0.6" paint-order="stroke" stroke-linejoin="round">3</text></g></g><g class="export-edge" data-id="Clab-Link5"><path d="M 380 200 L 380 120" fill="none" stroke="#00df2b" stroke-width="2.5" opacity="0.5"/><g class="edge-label"><circle cx="380" cy="182" r="6" fill="#bec8d2" stroke="rgba(0, 0, 0, 0.25)" stroke-width="0.7"/><text x="380" y="182" font-size="9" font-family="Helvetica, Arial, sans-serif" dominant-baseline="middle" alignment-baseline="middle" fill="#FFFFFF" text-anchor="middle" stroke="rgba(0, 0, 0, 0.95)" stroke-width="0.6" paint-order="stroke" stroke-linejoin="round">1</text></g><g class="edge-label"><circle cx="380" cy="138" r="6" fill="#bec8d2" stroke="rgba(0, 0, 0, 0.25)" stroke-width="0.7"/><text x="380" y="138" font-size="9" font-family="Helvetica, Arial, sans-serif" dominant-baseline="middle" alignment-baseline="middle" fill="#FFFFFF" text-anchor="middle" stroke="rgba(0, 0, 0, 0.95)" stroke-width="0.6" paint-order="stroke" stroke-linejoin="round">3</text></g></g><g class="export-edge" data-id="Clab-Link6"><path d="M 260 220 L 360 220" fill="none" stroke="#00df2b" stroke-width="2.5" opacity="0.5"/><g class="edge-label"><circle cx="278" cy="220" r="6" fill="#bec8d2" stroke="rgba(0, 0, 0, 0.25)" stroke-width="0.7"/><text x="278" y="220" font-size="9" font-family="Helvetica, Arial, sans-serif" dominant-baseline="middle" alignment-baseline="middle" fill="#FFFFFF" text-anchor="middle" stroke="rgba(0, 0, 0, 0.95)" stroke-width="0.6" paint-order="stroke" stroke-linejoin="round">3</text></g><g class="edge-label"><circle cx="342" cy="220" r="6" fill="#bec8d2" stroke="rgba(0, 0, 0, 0.25)" stroke-width="0.7"/><text x="342" y="220" font-size="9" font-family="Helvetica, Arial, sans-serif" dominant-baseline="middle" alignment-baseline="middle" fill="#FFFFFF" text-anchor="middle" stroke="rgba(0, 0, 0, 0.95)" stroke-width="0.6" paint-order="stroke" stroke-linejoin="round">2</text></g></g><g class="export-edge" data-id="Clab-Link7"><path d="M -20 220 L 80 220" fill="none" stroke="#00df2b" stroke-width="2.5" opacity="0.5"/><g class="edge-label"><circle cx="-2" cy="220" r="6" fill="#bec8d2" stroke="rgba(0, 0, 0, 0.25)" stroke-width="0.7"/><text x="-2" y="220" font-size="9" font-family="Helvetica, Arial, sans-serif" dominant-baseline="middle" alignment-baseline="middle" fill="#FFFFFF" text-anchor="middle" stroke="rgba(0, 0, 0, 0.95)" stroke-width="0.6" paint-order="stroke" stroke-linejoin="round">1</text></g><g class="edge-label"><circle cx="62" cy="220" r="6" fill="#bec8d2" stroke="rgba(0, 0, 0, 0.25)" stroke-width="0.7"/><text x="62" y="220" font-size="9" font-family="Helvetica, Arial, sans-serif" dominant-baseline="middle" alignment-baseline="middle" fill="#FFFFFF" text-anchor="middle" stroke="rgba(0, 0, 0, 0.95)" stroke-width="0.6" paint-order="stroke" stroke-linejoin="round">3</text></g></g><g class="export-edge" data-id="Clab-Link8"><path d="M 500 220 L 400 220" fill="none" stroke="#00df2b" stroke-width="2.5" opacity="0.5"/><g class="edge-label"><circle cx="482" cy="220" r="6" fill="#bec8d2" stroke="rgba(0, 0, 0, 0.25)" stroke-width="0.7"/><text x="482" y="220" font-size="9" font-family="Helvetica, Arial, sans-serif" dominant-baseline="middle" alignment-baseline="middle" fill="#FFFFFF" text-anchor="middle" stroke="rgba(0, 0, 0, 0.95)" stroke-width="0.6" paint-order="stroke" stroke-linejoin="round">1</text></g><g class="edge-label"><circle cx="418" cy="220" r="6" fill="#bec8d2" stroke="rgba(0, 0, 0, 0.25)" stroke-width="0.7"/><text x="418" y="220" font-size="9" font-family="Helvetica, Arial, sans-serif" dominant-baseline="middle" alignment-baseline="middle" fill="#FFFFFF" text-anchor="middle" stroke="rgba(0, 0, 0, 0.95)" stroke-width="0.6" paint-order="stroke" stroke-linejoin="round">3</text></g></g><g class="export-edge" data-id="Clab-Link9"><path d="M 380 -20 L 380 80" fill="none" stroke="#00df2b" stroke-width="2.5" opacity="0.5"/><g class="edge-label"><circle cx="380" cy="-2" r="6" fill="#bec8d2" stroke="rgba(0, 0, 0, 0.25)" stroke-width="0.7"/><text x="380" y="-2" font-size="9" font-family="Helvetica, Arial, sans-serif" dominant-baseline="middle" alignment-baseline="middle" fill="#FFFFFF" text-anchor="middle" stroke="rgba(0, 0, 0, 0.95)" stroke-width="0.6" paint-order="stroke" stroke-linejoin="round">2</text></g><g class="edge-label"><circle cx="380" cy="62" r="6" fill="#bec8d2" stroke="rgba(0, 0, 0, 0.25)" stroke-width="0.7"/><text x="380" y="62" font-size="9" font-family="Helvetica, Arial, sans-serif" dominant-baseline="middle" alignment-baseline="middle" fill="#FFFFFF" text-anchor="middle" stroke="rgba(0, 0, 0, 0.95)" stroke-width="0.6" paint-order="stroke" stroke-linejoin="round">1</text></g></g><g class="export-edge" data-id="Clab-Link10"><path d="M 240 -20 L 240 80" fill="none" stroke="#00df2b" stroke-width="2.5" opacity="0.5"/><g class="edge-label"><circle cx="240" cy="-2" r="6" fill="#bec8d2" stroke="rgba(0, 0, 0, 0.25)" stroke-width="0.7"/><text x="240" y="-2" font-size="9" font-family="Helvetica, Arial, sans-serif" dominant-baseline="middle" alignment-baseline="middle" fill="#FFFFFF" text-anchor="middle" stroke="rgba(0, 0, 0, 0.95)" stroke-width="0.6" paint-order="stroke" stroke-linejoin="round">3</text></g><g class="edge-label"><circle cx="240" cy="62" r="6" fill="#bec8d2" stroke="rgba(0, 0, 0, 0.25)" stroke-width="0.7"/><text x="240" y="62" font-size="9" font-family="Helvetica, Arial, sans-serif" dominant-baseline="middle" alignment-baseline="middle" fill="#FFFFFF" text-anchor="middle" stroke="rgba(0, 0, 0, 0.95)" stroke-width="0.6" paint-order="stroke" stroke-linejoin="round">1</text></g></g><g class="export-edge" data-id="Clab-Link11"><path d="M 100 80 L 100 -20" fill="none" stroke="#00df2b" stroke-width="2.5" opacity="0.5"/><g class="edge-label"><circle cx="100" cy="62" r="6" fill="#bec8d2" stroke="rgba(0, 0, 0, 0.25)" stroke-width="0.7"/><text x="100" y="62" font-size="9" font-family="Helvetica, Arial, sans-serif" dominant-baseline="middle" alignment-baseline="middle" fill="#FFFFFF" text-anchor="middle" stroke="rgba(0, 0, 0, 0.95)" stroke-width="0.6" paint-order="stroke" stroke-linejoin="round">1</text></g><g class="edge-label"><circle cx="100" cy="-2" r="6" fill="#bec8d2" stroke="rgba(0, 0, 0, 0.25)" stroke-width="0.7"/><text x="100" y="-2" font-size="9" font-family="Helvetica, Arial, sans-serif" dominant-baseline="middle" alignment-baseline="middle" fill="#FFFFFF" text-anchor="middle" stroke="rgba(0, 0, 0, 0.95)" stroke-width="0.6" paint-order="stroke" stroke-linejoin="round">2</text></g></g><g class="export-edge" data-id="Clab-Link12"><path d="M 220 220 L 120 220" fill="none" stroke="#00df2b" stroke-width="2.5" opacity="0.5"/><g class="edge-label"><circle cx="202" cy="220" r="6" fill="#bec8d2" stroke="rgba(0, 0, 0, 0.25)" stroke-width="0.7"/><text x="202" y="220" font-size="9" font-family="Helvetica, Arial, sans-serif" dominant-baseline="middle" alignment-baseline="middle" fill="#FFFFFF" text-anchor="middle" stroke="rgba(0, 0, 0, 0.95)" stroke-width="0.6" paint-order="stroke" stroke-linejoin="round">1</text></g><g class="edge-label"><circle cx="138" cy="220" r="6" fill="#bec8d2" stroke="rgba(0, 0, 0, 0.25)" stroke-width="0.7"/><text x="138" y="220" font-size="9" font-family="Helvetica, Arial, sans-serif" dominant-baseline="middle" alignment-baseline="middle" fill="#FFFFFF" text-anchor="middle" stroke="rgba(0, 0, 0, 0.95)" stroke-width="0.6" paint-order="stroke" stroke-linejoin="round">2</text></g></g><g class="export-edge" data-id="Clab-Link13"><path d="M 240 200 L 240 120" fill="none" stroke="#00df2b" stroke-width="2.5" opacity="0.5"/><g class="edge-label"><circle cx="240" cy="182" r="6" fill="#bec8d2" stroke="rgba(0, 0, 0, 0.25)" stroke-width="0.7"/><text x="240" y="182" font-size="9" font-family="Helvetica, Arial, sans-serif" dominant-baseline="middle" alignment-baseline="middle" fill="#FFFFFF" text-anchor="middle" stroke="rgba(0, 0, 0, 0.95)" stroke-width="0.6" paint-order="stroke" stroke-linejoin="round">2</text></g><g class="edge-label"><circle cx="240" cy="138" r="6" fill="#bec8d2" stroke="rgba(0, 0, 0, 0.25)" stroke-width="0.7"/><text x="240" y="138" font-size="9" font-family="Helvetica, Arial, sans-serif" dominant-baseline="middle" alignment-baseline="middle" fill="#FFFFFF" text-anchor="middle" stroke="rgba(0, 0, 0, 0.95)" stroke-width="0.6" paint-order="stroke" stroke-linejoin="round">4</text></g></g><g class="export-node topology-node" data-id="RT-01"><g transform="rotate(0 100 -40)"><rect x="80" y="-60" width="40" height="40" rx="4" ry="4" fill="#005aff"/><g transform="translate(80, -60)" style="color: #005aff"><g transform="scale(0.3333)">
                        
                        <rect height="120" width="120" fill="currentColor"/>
                        <g>
                            <g>
                                <path d="M71.7,19.7V48h28" fill="none" stroke="#FFFFFF" stroke-width="4" stroke-linecap="round" stroke-linejoin="round"/>
                                <path d="M91.2,38.5l7.5,7.6c1.3,1.3,1.3,3.1,0,4.3L91.1,58" fill="none" stroke="#FFFFFF" stroke-width="4" stroke-linecap="round" stroke-linejoin="round"/>
                            </g>
                            <g>
                                <path d="M20,47.8h28.4v-28" fill="none" stroke="#FFFFFF" stroke-width="4" stroke-linecap="round" stroke-linejoin="round"/>
                                <path d="M38.8,28.3l7.6-7.5c1.3-1.3,3.1-1.3,4.3,0l7.7,7.6" fill="none" stroke="#FFFFFF" stroke-width="4" stroke-linecap="round" stroke-linejoin="round"/>
                            </g>
                            <g>
                                <path d="M48,100.3V72H20" fill="none" stroke="#FFFFFF" stroke-width="4" stroke-linecap="round" stroke-linejoin="round"/>
                                <path d="M28.5,81.5L21,73.9c-1.3-1.3-1.3-3.1,0-4.3l7.6-7.7" fill="none" stroke="#FFFFFF" stroke-width="4" stroke-linecap="round" stroke-linejoin="round"/>
                            </g>
                            <g>
                                <path d="M100,71.9H71.6v28" fill="none" stroke="#FFFFFF" stroke-width="4" stroke-linecap="round" stroke-linejoin="round"/>
                                <path d="M81.2,91.4l-7.6,7.5c-1.3,1.3-3.1,1.3-4.3,0l-7.7-7.6" fill="none" stroke="#FFFFFF" stroke-width="4" stroke-linecap="round" stroke-linejoin="round"/>
                            </g>
                        </g>
                    </g></g></g><rect x="79.5" y="-18" width="41" height="15" fill="rgba(0, 0, 0, 0.85)" rx="3" ry="3"/><text x="100" y="-8.2" font-size="11" font-weight="500" font-family="system-ui, -apple-system, sans-serif" fill="#FFFFFF" text-anchor="middle" stroke="rgba(0, 0, 0, 0.95)" stroke-width="0.8" paint-order="stroke" stroke-linejoin="round" filter="url(#text-shadow)">RT-01</text></g><g class="export-node topology-node" data-id="RT-02"><g transform="rotate(0 240 -40)"><rect x="220" y="-60" width="40" height="40" rx="4" ry="4" fill="#005aff"/><g transform="translate(220, -60)" style="color: #005aff"><g transform="scale(0.3333)">
                        
                        <rect height="120" width="120" fill="currentColor"/>
                        <g>
                            <g>
                                <path d="M71.7,19.7V48h28" fill="none" stroke="#FFFFFF" stroke-width="4" stroke-linecap="round" stroke-linejoin="round"/>
                                <path d="M91.2,38.5l7.5,7.6c1.3,1.3,1.3,3.1,0,4.3L91.1,58" fill="none" stroke="#FFFFFF" stroke-width="4" stroke-linecap="round" stroke-linejoin="round"/>
                            </g>
                            <g>
                                <path d="M20,47.8h28.4v-28" fill="none" stroke="#FFFFFF" stroke-width="4" stroke-linecap="round" stroke-linejoin="round"/>
                                <path d="M38.8,28.3l7.6-7.5c1.3-1.3,3.1-1.3,4.3,0l7.7,7.6" fill="none" stroke="#FFFFFF" stroke-width="4" stroke-linecap="round" stroke-linejoin="round"/>
                            </g>
                            <g>
                                <path d="M48,100.3V72H20" fill="none" stroke="#FFFFFF" stroke-width="4" stroke-linecap="round" stroke-linejoin="round"/>
                                <path d="M28.5,81.5L21,73.9c-1.3-1.3-1.3-3.1,0-4.3l7.6-7.7" fill="none" stroke="#FFFFFF" stroke-width="4" stroke-linecap="round" stroke-linejoin="round"/>
                            </g>
                            <g>
                                <path d="M100,71.9H71.6v28" fill="none" stroke="#FFFFFF" stroke-width="4" stroke-linecap="round" stroke-linejoin="round"/>
                                <path d="M81.2,91.4l-7.6,7.5c-1.3,1.3-3.1,1.3-4.3,0l-7.7-7.6" fill="none" stroke="#FFFFFF" stroke-width="4" stroke-linecap="round" stroke-linejoin="round"/>
                            </g>
                        </g>
                    </g></g></g><rect x="219.5" y="-18" width="41" height="15" fill="rgba(0, 0, 0, 0.85)" rx="3" ry="3"/><text x="240" y="-8.2" font-size="11" font-weight="500" font-family="system-ui, -apple-system, sans-serif" fill="#FFFFFF" text-anchor="middle" stroke="rgba(0, 0, 0, 0.95)" stroke-width="0.8" paint-order="stroke" stroke-linejoin="round" filter="url(#text-shadow)">RT-02</text></g><g class="export-node topology-node" data-id="RT-03"><g transform="rotate(0 380 -40)"><rect x="360" y="-60" width="40" height="40" rx="4" ry="4" fill="#005aff"/><g transform="translate(360, -60)" style="color: #005aff"><g transform="scale(0.3333)">
                        
                        <rect height="120" width="120" fill="currentColor"/>
                        <g>
                            <g>
                                <path d="M71.7,19.7V48h28" fill="none" stroke="#FFFFFF" stroke-width="4" stroke-linecap="round" stroke-linejoin="round"/>
                                <path d="M91.2,38.5l7.5,7.6c1.3,1.3,1.3,3.1,0,4.3L91.1,58" fill="none" stroke="#FFFFFF" stroke-width="4" stroke-linecap="round" stroke-linejoin="round"/>
                            </g>
                            <g>
                                <path d="M20,47.8h28.4v-28" fill="none" stroke="#FFFFFF" stroke-width="4" stroke-linecap="round" stroke-linejoin="round"/>
                                <path d="M38.8,28.3l7.6-7.5c1.3-1.3,3.1-1.3,4.3,0l7.7,7.6" fill="none" stroke="#FFFFFF" stroke-width="4" stroke-linecap="round" stroke-linejoin="round"/>
                            </g>
                            <g>
                                <path d="M48,100.3V72H20" fill="none" stroke="#FFFFFF" stroke-width="4" stroke-linecap="round" stroke-linejoin="round"/>
                                <path d="M28.5,81.5L21,73.9c-1.3-1.3-1.3-3.1,0-4.3l7.6-7.7" fill="none" stroke="#FFFFFF" stroke-width="4" stroke-linecap="round" stroke-linejoin="round"/>
                            </g>
                            <g>
                                <path d="M100,71.9H71.6v28" fill="none" stroke="#FFFFFF" stroke-width="4" stroke-linecap="round" stroke-linejoin="round"/>
                                <path d="M81.2,91.4l-7.6,7.5c-1.3,1.3-3.1,1.3-4.3,0l-7.7-7.6" fill="none" stroke="#FFFFFF" stroke-width="4" stroke-linecap="round" stroke-linejoin="round"/>
                            </g>
                        </g>
                    </g></g></g><rect x="359.5" y="-18" width="41" height="15" fill="rgba(0, 0, 0, 0.85)" rx="3" ry="3"/><text x="380" y="-8.2" font-size="11" font-weight="500" font-family="system-ui, -apple-system, sans-serif" fill="#FFFFFF" text-anchor="middle" stroke="rgba(0, 0, 0, 0.95)" stroke-width="0.8" paint-order="stroke" stroke-linejoin="round" filter="url(#text-shadow)">RT-03</text></g><g class="export-node topology-node" data-id="RT-04"><g transform="rotate(0 100 100)"><rect x="80" y="80" width="40" height="40" rx="4" ry="4" fill="#005aff"/><g transform="translate(80, 80)" style="color: #005aff"><g transform="scale(0.3333)">
                        
                        <rect height="120" width="120" fill="currentColor"/>
                        <g>
                            <g>
                                <path d="M71.7,19.7V48h28" fill="none" stroke="#FFFFFF" stroke-width="4" stroke-linecap="round" stroke-linejoin="round"/>
                                <path d="M91.2,38.5l7.5,7.6c1.3,1.3,1.3,3.1,0,4.3L91.1,58" fill="none" stroke="#FFFFFF" stroke-width="4" stroke-linecap="round" stroke-linejoin="round"/>
                            </g>
                            <g>
                                <path d="M20,47.8h28.4v-28" fill="none" stroke="#FFFFFF" stroke-width="4" stroke-linecap="round" stroke-linejoin="round"/>
                                <path d="M38.8,28.3l7.6-7.5c1.3-1.3,3.1-1.3,4.3,0l7.7,7.6" fill="none" stroke="#FFFFFF" stroke-width="4" stroke-linecap="round" stroke-linejoin="round"/>
                            </g>
                            <g>
                                <path d="M48,100.3V72H20" fill="none" stroke="#FFFFFF" stroke-width="4" stroke-linecap="round" stroke-linejoin="round"/>
                                <path d="M28.5,81.5L21,73.9c-1.3-1.3-1.3-3.1,0-4.3l7.6-7.7" fill="none" stroke="#FFFFFF" stroke-width="4" stroke-linecap="round" stroke-linejoin="round"/>
                            </g>
                            <g>
                                <path d="M100,71.9H71.6v28" fill="none" stroke="#FFFFFF" stroke-width="4" stroke-linecap="round" stroke-linejoin="round"/>
                                <path d="M81.2,91.4l-7.6,7.5c-1.3,1.3-3.1,1.3-4.3,0l-7.7-7.6" fill="none" stroke="#FFFFFF" stroke-width="4" stroke-linecap="round" stroke-linejoin="round"/>
                            </g>
                        </g>
                    </g></g></g><rect x="79.5" y="122" width="41" height="15" fill="rgba(0, 0, 0, 0.85)" rx="3" ry="3"/><text x="100" y="131.8" font-size="11" font-weight="500" font-family="system-ui, -apple-system, sans-serif" fill="#FFFFFF" text-anchor="middle" stroke="rgba(0, 0, 0, 0.95)" stroke-width="0.8" paint-order="stroke" stroke-linejoin="round" filter="url(#text-shadow)">RT-04</text></g><g class="export-node topology-node" data-id="RT-05"><g transform="rotate(0 240 100)"><rect x="220" y="80" width="40" height="40" rx="4" ry="4" fill="#005aff"/><g transform="translate(220, 80)" style="color: #005aff"><g transform="scale(0.3333)">
                        
                        <rect height="120" width="120" fill="currentColor"/>
                        <g>
                            <g>
                                <path d="M71.7,19.7V48h28" fill="none" stroke="#FFFFFF" stroke-width="4" stroke-linecap="round" stroke-linejoin="round"/>
                                <path d="M91.2,38.5l7.5,7.6c1.3,1.3,1.3,3.1,0,4.3L91.1,58" fill="none" stroke="#FFFFFF" stroke-width="4" stroke-linecap="round" stroke-linejoin="round"/>
                            </g>
                            <g>
                                <path d="M20,47.8h28.4v-28" fill="none" stroke="#FFFFFF" stroke-width="4" stroke-linecap="round" stroke-linejoin="round"/>
                                <path d="M38.8,28.3l7.6-7.5c1.3-1.3,3.1-1.3,4.3,0l7.7,7.6" fill="none" stroke="#FFFFFF" stroke-width="4" stroke-linecap="round" stroke-linejoin="round"/>
                            </g>
                            <g>
                                <path d="M48,100.3V72H20" fill="none" stroke="#FFFFFF" stroke-width="4" stroke-linecap="round" stroke-linejoin="round"/>
                                <path d="M28.5,81.5L21,73.9c-1.3-1.3-1.3-3.1,0-4.3l7.6-7.7" fill="none" stroke="#FFFFFF" stroke-width="4" stroke-linecap="round" stroke-linejoin="round"/>
                            </g>
                            <g>
                                <path d="M100,71.9H71.6v28" fill="none" stroke="#FFFFFF" stroke-width="4" stroke-linecap="round" stroke-linejoin="round"/>
                                <path d="M81.2,91.4l-7.6,7.5c-1.3,1.3-3.1,1.3-4.3,0l-7.7-7.6" fill="none" stroke="#FFFFFF" stroke-width="4" stroke-linecap="round" stroke-linejoin="round"/>
                            </g>
                        </g>
                    </g></g></g><rect x="219.5" y="122" width="41" height="15" fill="rgba(0, 0, 0, 0.85)" rx="3" ry="3"/><text x="240" y="131.8" font-size="11" font-weight="500" font-family="system-ui, -apple-system, sans-serif" fill="#FFFFFF" text-anchor="middle" stroke="rgba(0, 0, 0, 0.95)" stroke-width="0.8" paint-order="stroke" stroke-linejoin="round" filter="url(#text-shadow)">RT-05</text></g><g class="export-node topology-node" data-id="RT-06"><g transform="rotate(0 380 100)"><rect x="360" y="80" width="40" height="40" rx="4" ry="4" fill="#005aff"/><g transform="translate(360, 80)" style="color: #005aff"><g transform="scale(0.3333)">
                        
                        <rect height="120" width="120" fill="currentColor"/>
                        <g>
                            <g>
                                <path d="M71.7,19.7V48h28" fill="none" stroke="#FFFFFF" stroke-width="4" stroke-linecap="round" stroke-linejoin="round"/>
                                <path d="M91.2,38.5l7.5,7.6c1.3,1.3,1.3,3.1,0,4.3L91.1,58" fill="none" stroke="#FFFFFF" stroke-width="4" stroke-linecap="round" stroke-linejoin="round"/>
                            </g>
                            <g>
                                <path d="M20,47.8h28.4v-28" fill="none" stroke="#FFFFFF" stroke-width="4" stroke-linecap="round" stroke-linejoin="round"/>
                                <path d="M38.8,28.3l7.6-7.5c1.3-1.3,3.1-1.3,4.3,0l7.7,7.6" fill="none" stroke="#FFFFFF" stroke-width="4" stroke-linecap="round" stroke-linejoin="round"/>
                            </g>
                            <g>
                                <path d="M48,100.3V72H20" fill="none" stroke="#FFFFFF" stroke-width="4" stroke-linecap="round" stroke-linejoin="round"/>
                                <path d="M28.5,81.5L21,73.9c-1.3-1.3-1.3-3.1,0-4.3l7.6-7.7" fill="none" stroke="#FFFFFF" stroke-width="4" stroke-linecap="round" stroke-linejoin="round"/>
                            </g>
                            <g>
                                <path d="M100,71.9H71.6v28" fill="none" stroke="#FFFFFF" stroke-width="4" stroke-linecap="round" stroke-linejoin="round"/>
                                <path d="M81.2,91.4l-7.6,7.5c-1.3,1.3-3.1,1.3-4.3,0l-7.7-7.6" fill="none" stroke="#FFFFFF" stroke-width="4" stroke-linecap="round" stroke-linejoin="round"/>
                            </g>
                        </g>
                    </g></g></g><rect x="359.5" y="122" width="41" height="15" fill="rgba(0, 0, 0, 0.85)" rx="3" ry="3"/><text x="380" y="131.8" font-size="11" font-weight="500" font-family="system-ui, -apple-system, sans-serif" fill="#FFFFFF" text-anchor="middle" stroke="rgba(0, 0, 0, 0.95)" stroke-width="0.8" paint-order="stroke" stroke-linejoin="round" filter="url(#text-shadow)">RT-06</text></g><g class="export-node topology-node" data-id="RT-07"><g transform="rotate(0 100 220)"><rect x="80" y="200" width="40" height="40" rx="4" ry="4" fill="#005aff"/><g transform="translate(80, 200)" style="color: #005aff"><g transform="scale(0.3333)">
                        
                        <rect height="120" width="120" fill="currentColor"/>
                        <g>
                            <g>
                                <path d="M71.7,19.7V48h28" fill="none" stroke="#FFFFFF" stroke-width="4" stroke-linecap="round" stroke-linejoin="round"/>
                                <path d="M91.2,38.5l7.5,7.6c1.3,1.3,1.3,3.1,0,4.3L91.1,58" fill="none" stroke="#FFFFFF" stroke-width="4" stroke-linecap="round" stroke-linejoin="round"/>
                            </g>
                            <g>
                                <path d="M20,47.8h28.4v-28" fill="none" stroke="#FFFFFF" stroke-width="4" stroke-linecap="round" stroke-linejoin="round"/>
                                <path d="M38.8,28.3l7.6-7.5c1.3-1.3,3.1-1.3,4.3,0l7.7,7.6" fill="none" stroke="#FFFFFF" stroke-width="4" stroke-linecap="round" stroke-linejoin="round"/>
                            </g>
                            <g>
                                <path d="M48,100.3V72H20" fill="none" stroke="#FFFFFF" stroke-width="4" stroke-linecap="round" stroke-linejoin="round"/>
                                <path d="M28.5,81.5L21,73.9c-1.3-1.3-1.3-3.1,0-4.3l7.6-7.7" fill="none" stroke="#FFFFFF" stroke-width="4" stroke-linecap="round" stroke-linejoin="round"/>
                            </g>
                            <g>
                                <path d="M100,71.9H71.6v28" fill="none" stroke="#FFFFFF" stroke-width="4" stroke-linecap="round" stroke-linejoin="round"/>
                                <path d="M81.2,91.4l-7.6,7.5c-1.3,1.3-3.1,1.3-4.3,0l-7.7-7.6" fill="none" stroke="#FFFFFF" stroke-width="4" stroke-linecap="round" stroke-linejoin="round"/>
                            </g>
                        </g>
                    </g></g></g><rect x="79.5" y="242" width="41" height="15" fill="rgba(0, 0, 0, 0.85)" rx="3" ry="3"/><text x="100" y="251.8" font-size="11" font-weight="500" font-family="system-ui, -apple-system, sans-serif" fill="#FFFFFF" text-anchor="middle" stroke="rgba(0, 0, 0, 0.95)" stroke-width="0.8" paint-order="stroke" stroke-linejoin="round" filter="url(#text-shadow)">RT-07</text></g><g class="export-node topology-node" data-id="RT-08"><g transform="rotate(0 240 220)"><rect x="220" y="200" width="40" height="40" rx="4" ry="4" fill="#005aff"/><g transform="translate(220, 200)" style="color: #005aff"><g transform="scale(0.3333)">
                        
                        <rect height="120" width="120" fill="currentColor"/>
                        <g>
                            <g>
                                <path d="M71.7,19.7V48h28" fill="none" stroke="#FFFFFF" stroke-width="4" stroke-linecap="round" stroke-linejoin="round"/>
                                <path d="M91.2,38.5l7.5,7.6c1.3,1.3,1.3,3.1,0,4.3L91.1,58" fill="none" stroke="#FFFFFF" stroke-width="4" stroke-linecap="round" stroke-linejoin="round"/>
                            </g>
                            <g>
                                <path d="M20,47.8h28.4v-28" fill="none" stroke="#FFFFFF" stroke-width="4" stroke-linecap="round" stroke-linejoin="round"/>
                                <path d="M38.8,28.3l7.6-7.5c1.3-1.3,3.1-1.3,4.3,0l7.7,7.6" fill="none" stroke="#FFFFFF" stroke-width="4" stroke-linecap="round" stroke-linejoin="round"/>
                            </g>
                            <g>
                                <path d="M48,100.3V72H20" fill="none" stroke="#FFFFFF" stroke-width="4" stroke-linecap="round" stroke-linejoin="round"/>
                                <path d="M28.5,81.5L21,73.9c-1.3-1.3-1.3-3.1,0-4.3l7.6-7.7" fill="none" stroke="#FFFFFF" stroke-width="4" stroke-linecap="round" stroke-linejoin="round"/>
                            </g>
                            <g>
                                <path d="M100,71.9H71.6v28" fill="none" stroke="#FFFFFF" stroke-width="4" stroke-linecap="round" stroke-linejoin="round"/>
                                <path d="M81.2,91.4l-7.6,7.5c-1.3,1.3-3.1,1.3-4.3,0l-7.7-7.6" fill="none" stroke="#FFFFFF" stroke-width="4" stroke-linecap="round" stroke-linejoin="round"/>
                            </g>
                        </g>
                    </g></g></g><rect x="219.5" y="242" width="41" height="15" fill="rgba(0, 0, 0, 0.85)" rx="3" ry="3"/><text x="240" y="251.8" font-size="11" font-weight="500" font-family="system-ui, -apple-system, sans-serif" fill="#FFFFFF" text-anchor="middle" stroke="rgba(0, 0, 0, 0.95)" stroke-width="0.8" paint-order="stroke" stroke-linejoin="round" filter="url(#text-shadow)">RT-08</text></g><g class="export-node topology-node" data-id="RT-09"><g transform="rotate(0 380 220)"><rect x="360" y="200" width="40" height="40" rx="4" ry="4" fill="#005aff"/><g transform="translate(360, 200)" style="color: #005aff"><g transform="scale(0.3333)">
                        
                        <rect height="120" width="120" fill="currentColor"/>
                        <g>
                            <g>
                                <path d="M71.7,19.7V48h28" fill="none" stroke="#FFFFFF" stroke-width="4" stroke-linecap="round" stroke-linejoin="round"/>
                                <path d="M91.2,38.5l7.5,7.6c1.3,1.3,1.3,3.1,0,4.3L91.1,58" fill="none" stroke="#FFFFFF" stroke-width="4" stroke-linecap="round" stroke-linejoin="round"/>
                            </g>
                            <g>
                                <path d="M20,47.8h28.4v-28" fill="none" stroke="#FFFFFF" stroke-width="4" stroke-linecap="round" stroke-linejoin="round"/>
                                <path d="M38.8,28.3l7.6-7.5c1.3-1.3,3.1-1.3,4.3,0l7.7,7.6" fill="none" stroke="#FFFFFF" stroke-width="4" stroke-linecap="round" stroke-linejoin="round"/>
                            </g>
                            <g>
                                <path d="M48,100.3V72H20" fill="none" stroke="#FFFFFF" stroke-width="4" stroke-linecap="round" stroke-linejoin="round"/>
                                <path d="M28.5,81.5L21,73.9c-1.3-1.3-1.3-3.1,0-4.3l7.6-7.7" fill="none" stroke="#FFFFFF" stroke-width="4" stroke-linecap="round" stroke-linejoin="round"/>
                            </g>
                            <g>
                                <path d="M100,71.9H71.6v28" fill="none" stroke="#FFFFFF" stroke-width="4" stroke-linecap="round" stroke-linejoin="round"/>
                                <path d="M81.2,91.4l-7.6,7.5c-1.3,1.3-3.1,1.3-4.3,0l-7.7-7.6" fill="none" stroke="#FFFFFF" stroke-width="4" stroke-linecap="round" stroke-linejoin="round"/>
                            </g>
                        </g>
                    </g></g></g><rect x="359.5" y="242" width="41" height="15" fill="rgba(0, 0, 0, 0.85)" rx="3" ry="3"/><text x="380" y="251.8" font-size="11" font-weight="500" font-family="system-ui, -apple-system, sans-serif" fill="#FFFFFF" text-anchor="middle" stroke="rgba(0, 0, 0, 0.95)" stroke-width="0.8" paint-order="stroke" stroke-linejoin="round" filter="url(#text-shadow)">RT-09</text></g><g class="export-node topology-node" data-id="SV-01"><g transform="rotate(0 -40 220)"><rect x="-60" y="200" width="40" height="40" rx="4" ry="4" fill="#005aff"/><g transform="translate(-60, 200)" style="color: #005aff"><g transform="scale(0.3333)">
                            
                            <rect height="120" width="120" fill="currentColor"/>
                            <g>
                                <path fill="none" stroke="#FFFFFF" stroke-width="4" stroke-linecap="round" stroke-linejoin="round" d="M100,91.1H20H100z M89.1,32.5c0-0.5,0-1-0.2-1.4c-0.2-0.5-0.4-0.9-0.8-1.2                                     c-0.3-0.3-0.8-0.6-1.2-0.8c-0.5-0.2-0.9-0.2-1.4-0.2H34.6c-0.5,0-1,0-1.4,0.2                                     c-0.5,0.2-0.9,0.4-1.2,0.8c-0.3,0.3-0.6,0.8-0.8,1.2c-0.2,0.5-0.2,0.9-0.2,1.4V76h58.2V32.5z"/>
                            </g>
                        </g></g></g><rect x="-60.5" y="242" width="41" height="15" fill="rgba(0, 0, 0, 0.85)" rx="3" ry="3"/><text x="-40" y="251.8" font-size="11" font-weight="500" font-family="system-ui, -apple-system, sans-serif" fill="#FFFFFF" text-anchor="middle" stroke="rgba(0, 0, 0, 0.95)" stroke-width="0.8" paint-order="stroke" stroke-linejoin="round" filter="url(#text-shadow)">SV-01</text></g><g class="export-node topology-node" data-id="SV-02"><g transform="rotate(0 520 220)"><rect x="500" y="200" width="40" height="40" rx="4" ry="4" fill="#005aff"/><g transform="translate(500, 200)" style="color: #005aff"><g transform="scale(0.3333)">
                            
                            <rect height="120" width="120" fill="currentColor"/>
                            <g>
                                <path fill="none" stroke="#FFFFFF" stroke-width="4" stroke-linecap="round" stroke-linejoin="round" d="M100,91.1H20H100z M89.1,32.5c0-0.5,0-1-0.2-1.4c-0.2-0.5-0.4-0.9-0.8-1.2                                     c-0.3-0.3-0.8-0.6-1.2-0.8c-0.5-0.2-0.9-0.2-1.4-0.2H34.6c-0.5,0-1,0-1.4,0.2                                     c-0.5,0.2-0.9,0.4-1.2,0.8c-0.3,0.3-0.6,0.8-0.8,1.2c-0.2,0.5-0.2,0.9-0.2,1.4V76h58.2V32.5z"/>
                            </g>
                        </g></g></g><rect x="499.5" y="242" width="41" height="15" fill="rgba(0, 0, 0, 0.85)" rx="3" ry="3"/><text x="520" y="251.8" font-size="11" font-weight="500" font-family="system-ui, -apple-system, sans-serif" fill="#FFFFFF" text-anchor="middle" stroke="rgba(0, 0, 0, 0.95)" stroke-width="0.8" paint-order="stroke" stroke-linejoin="round" filter="url(#text-shadow)">SV-02</text></g></g></svg>